<?xml version="1.0" encoding="utf-8"?>
<!-- Generator: Adobe Illustrator 24.3.0, SVG Export Plug-In . SVG Version: 6.00 Build 0)  -->
<svg version="1.1" id="Layer_1" xmlns="http://www.w3.org/2000/svg" xmlns:xlink="http://www.w3.org/1999/xlink" x="0px" y="0px"
	 viewBox="0 0 512 512" style="enable-background:new 0 0 512 512;" xml:space="preserve">
<style type="text/css">
	.st0{fill:#20C997;}
</style>
<g id="Outline">
	<path class="st0" d="M488,248c4.4,0,8-3.6,8-8v-88c0-4.4-3.6-8-8-8h-44L285.4,35.4c-7-16.2-25.8-23.7-42.1-16.7
		c-7.5,3.2-13.5,9.2-16.7,16.7L68,144H24c-4.4,0-8,3.6-8,8v336c0,4.4,3.6,8,8,8h464c4.4,0,8-3.6,8-8V272c0-4.4-3.6-8-8-8s-8,3.6-8,8
		v208H32V160h448v80C480,244.4,483.6,248,488,248z M248,78.9c5.2,1.5,10.7,1.5,15.9,0l95.1,65.1H152.9L248,78.9z M279.2,69.9
		c3.7-4,6.4-8.8,7.7-14.1L415.7,144h-28.3L279.2,69.9z M256,32c8.8,0,16,7.2,16,16s-7.2,16-16,16c-8.8,0-16-7.2-16-16
		S247.2,32,256,32z M225.1,55.8c1.3,5.3,4,10.1,7.7,14.1L124.6,144H96.3L225.1,55.8z"/>
	<path class="st0" d="M56,352c-4.4,0-8,3.6-8,8v96c0,4.4,3.6,8,8,8h400c4.4,0,8-3.6,8-8V184c0-4.4-3.6-8-8-8H56c-4.4,0-8,3.6-8,8
		v144c0,4.4,3.6,8,8,8s8-3.6,8-8V192h384v256h-56v-16c0-4.4-3.6-8-8-8s-8,3.6-8,8v16h-56v-8c0-5.6-1.2-11.1-3.5-16.2l13.8,13.8
		c3.1,3.1,8.2,3.1,11.3,0l24-24c1.5-1.5,2.3-3.5,2.3-5.7v-16h8c19.5-0.1,36.2,14,39.4,33.3c0.6,3.9,4,6.7,7.9,6.7
		c0.4,0,0.9,0,1.3-0.1c4.4-0.7,7.3-4.9,6.6-9.2c-4.4-26.2-26.6-45.7-53.1-46.6c9.8-8.6,16.8-20,20-32.7c15.1-2.9,25.9-16.1,26-31.4
		c0-5.5-1.9-10.8-5.4-15c0.9-2.9,1.4-6,1.4-9c0-44.2-35.8-80-80-80h-80c-4.4,0-8,3.6-8,8v56c0,5.5,1,10.9,2.9,16H248
		c-3.8,0.1-7.6,0.7-11.2,1.8c-1.4-1.1-3-1.7-4.8-1.8c-24.1,0-47.4-8.2-66.2-23.2l-8.8-7c-3.5-2.7-8.5-2.2-11.2,1.3
		c-1.1,1.4-1.7,3.1-1.7,4.9c0,13.3-10.7,24-24,24h-8c-2.6,0-5.2,0.5-7.7,1.4c3.7-39.6,38.8-68.7,78.3-65c17,1.6,32.8,9.1,44.7,21.3
		c3,3.2,8.1,3.4,11.3,0.5c3.2-3,3.4-8.1,0.5-11.3c-0.1-0.1-0.2-0.2-0.3-0.3c-34-34.7-89.7-35.3-124.4-1.2
		C97.5,249.7,88,272.4,88,296v64c0,10.9,4.5,21.3,12.5,28.8C87.5,399.4,80,415.3,80,432v16H64v-88C64,355.6,60.4,352,56,352z
		 M160,389.9c10.5,2.8,21.5,2.8,32,0v14.8l-16,16l-16-16V389.9z M210.1,382.1c2.3,7.3,6.2,14,11.6,19.4c-5,1.3-9.6,3.6-13.7,6.7
		c0-0.1,0-0.2,0-0.2v-24.6C208.7,383,209.4,382.5,210.1,382.1z M224,352c9.8-0.5,19-4.8,25.5-12.1c10.8,7.9,23.7,12.1,37.1,12.2h1.4
		v16c0,17.7-14.3,32-32,32s-32-14.3-32-32V352z M244,414.4c7.9,2.1,16.1,2.1,24,0v1.6c0,4.4-3.6,8-8,8h-8c-4.4,0-8-3.6-8-8V414.4z
		 M301.9,382c0.7,0.4,1.4,0.8,2.1,1.2V408c0,0.1,0,0.2,0,0.2c-4.1-3.1-8.8-5.4-13.7-6.7C295.7,396,299.6,389.4,301.9,382L301.9,382z
		 M208,448v-8c0-11.7,8.5-21.7,20-23.6c0.2,13.1,10.9,23.6,24,23.6h8c13.1,0,23.7-10.5,24-23.6c11.5,1.9,20,11.9,20,23.6v8H208z
		 M336,420.7l-16-16v-14.8c10.5,2.8,21.5,2.8,32,0v14.8L336,420.7z M400,325.8V304c4.4,0,8,3.6,8,8C408,317.7,404.9,322.9,400,325.8
		z M268,224h72c35.3,0,64,28.7,64,64c0,0.1,0,0.3,0,0.4c-1.3-0.2-2.6-0.4-4-0.4h-8c-8.8,0-17.5-1.3-25.8-3.8
		c-4.2-1.3-8.7,1.1-10,5.4c-1.3,4.2,1.1,8.7,5.4,10c7.3,2.2,14.8,3.6,22.5,4.2V328c0,26.5-21.5,48-48,48c-11.8,0-23.2-4.4-32-12.4
		V328c0-10.5-4.1-20.5-11.5-28c11.5-5.6,20.4-15.5,24.7-27.5l0.9,0.9c3.9,3.9,8,7.4,12.5,10.7c3.5,2.6,8.6,1.9,11.2-1.6
		c2.6-3.5,1.9-8.6-1.6-11.2c-0.1,0-0.1-0.1-0.2-0.1c-3.8-2.7-7.3-5.7-10.6-9l-11.7-11.7c-3.1-3.1-8.2-3.1-11.3,0
		c-1.5,1.5-2.3,3.5-2.3,5.7c0,15.1-10.3,28.3-25,32l-1,0.2c-1.1,0.3-2.1,0.8-2.9,1.5c-0.6-0.2-1.2-0.4-1.8-0.6
		c-3.4-5.1-5.3-11.1-5.3-17.2V224z M264,304c13.3,0,24,10.7,24,24v8h-1.4c-12.4,0-24.2-4.9-33-13.7c-3.1-3.1-8.2-3.1-11.3,0
		c-0.6,0.6-1.1,1.3-1.5,2.1c-3.3,6.5-9.6,10.7-16.9,11.3V328c0-13.3,10.7-24,24-24H264z M128,303.2c13.3-2.7,24.4-12.1,29.3-24.7
		c17.4,13.4,38,21.8,59.8,24.5c-5.8,7-9,15.9-9.1,25v35.7c-8.8,7.9-20.2,12.3-32,12.3c-26.5,0-48-21.5-48-48V303.2z M112,304v22.2
		c-4.9-2.5-8-7.6-8-13.1V312C104,307.6,107.6,304,112,304z M104,360v-20c3.1,1.7,6.5,2.9,10,3.5c3.2,12.6,10.1,24,20,32.6
		c-6.5,0.2-12.9,1.6-18.9,4C108.2,375.7,104,368.1,104,360z M96,432c0-22.1,17.9-40,40-40h8v16c0,2.1,0.8,4.2,2.3,5.7l24,24
		c3.1,3.1,8.2,3.1,11.3,0l13.8-13.8c-2.3,5.1-3.5,10.6-3.5,16.2v8h-56v-16c0-4.4-3.6-8-8-8c-4.4,0-8,3.6-8,8v16H96V432z"/>
	<circle class="st0" cx="360" cy="320" r="8"/>
	<circle class="st0" cx="312" cy="320" r="8"/>
	<path class="st0" d="M324.9,338.7c-3.3-2.9-8.4-2.7-11.3,0.6c-2.9,3.2-2.7,8.1,0.4,11.1c12.4,11.6,31.7,11.2,43.7-0.8
		c3.1-3.2,3-8.2-0.2-11.3c-3.1-3-8-3-11.1,0C340.5,344.3,331,344.4,324.9,338.7z"/>
	<circle class="st0" cx="200" cy="320" r="8"/>
	<circle class="st0" cx="152" cy="320" r="8"/>
	<path class="st0" d="M153.6,339.2c-3,3.2-2.8,8.3,0.4,11.3c12.4,11.6,31.7,11.2,43.7-0.8c3.1-3.2,3-8.2-0.2-11.3c-3.1-3-8-3-11.1,0
		c-5.9,5.9-15.4,6.1-21.5,0.4C161.7,335.7,156.6,335.9,153.6,339.2z"/>
	<circle class="st0" cx="240" cy="368" r="8"/>
	<circle class="st0" cx="272" cy="368" r="8"/>
</g>
</svg>
