<svg id="Capa_1" enable-background="new 0 0 510.777 510.777" height="512" viewBox="0 0 510.777 510.777" width="512" xmlns="http://www.w3.org/2000/svg"><g><path d="m473.397 410.776c-.41-23.638-17.074-43.373-39.266-48.52l-69.838-148.392c-7.736-16.433-23.823-26.64-41.983-26.64-.003 0-.006 0-.008 0-18.158.003-34.24 10.211-41.97 26.641l-3.944 8.38-19.143-40.662c-8.48-18.02-26.119-29.213-46.031-29.213s-37.551 11.194-46.031 29.213l-78.182 166.12c-25.754 4.681-45.374 27.189-45.532 54.237-23.746 4.937-41.469 26.111-41.469 50.978 0 27.488 21.411 50.055 48.43 51.936.469.092.952.143 1.447.143h413.225c26.288 0 47.676-21.387 47.676-47.676-.001-22.562-15.936-41.802-37.381-46.545zm-179.492-190.524c5.31-11.287 15.927-18.026 28.399-18.028h.006c12.476 0 23.098 6.74 28.412 18.029l42.302 89.883c-5.579 5.753-8.652 13.314-8.652 21.353 0 8.648-7.039 15.684-15.691 15.684-4.189 0-8.126-1.63-11.091-4.595-2.962-2.956-4.593-6.894-4.593-11.089 0-16.919-13.765-30.683-30.684-30.683-8.2 0-15.907 3.19-21.701 8.983-5.798 5.798-8.99 13.505-8.99 21.7 0 8.648-7.035 15.684-15.684 15.684-4.189 0-8.126-1.63-11.086-4.59-2.965-2.964-4.598-6.904-4.598-11.094 0-8.076-3.161-15.683-8.66-21.349zm-115.149-32.282c6.071-12.9 18.205-20.601 32.459-20.601s26.388 7.701 32.459 20.602l24.426 51.885-27.091 57.554c-5.495-10.891-16.78-18.383-29.789-18.383-8.917 0-17.296 3.469-23.6 9.772-6.294 6.308-9.761 14.682-9.761 23.577 0 10.124-8.236 18.36-18.359 18.36-4.897 0-9.502-1.908-12.967-5.374-3.472-3.472-5.384-8.083-5.384-12.987 0-8.981-3.59-17.431-9.824-23.627zm-54.621 116.056c1.302 2.545 2.014 5.394 2.014 8.349 0 8.91 3.472 17.289 9.776 23.593 6.298 6.298 14.67 9.767 23.574 9.767 18.395 0 33.359-14.965 33.359-33.36 0-4.895 1.91-9.506 5.374-12.977 3.464-3.465 8.076-5.373 12.986-5.373 10.118 0 18.35 8.231 18.35 18.35 0 2.552.302 5.06.865 7.497l-19.902 42.282c-1.764 3.748-.155 8.216 3.592 9.98 3.746 1.765 8.216.156 9.98-3.591l20.1-42.702c.685 1.775 1.051 3.685 1.051 5.648 0 8.196 3.193 15.903 8.991 21.701 5.792 5.792 13.496 8.983 21.692 8.983 16.919 0 30.684-13.765 30.684-30.684 0-4.189 1.633-8.129 4.597-11.093 2.96-2.96 6.9-4.59 11.095-4.59 8.648 0 15.684 7.036 15.684 15.683 0 8.207 3.195 15.916 8.991 21.701 5.792 5.792 13.496 8.983 21.692 8.983 16.923 0 30.691-13.765 30.691-30.684 0-1.96.369-3.859 1.05-5.633l16.657 35.394c-25.065 2.76-44.693 23.842-45.139 49.525-3.505.775-6.859 1.944-10.023 3.445-7.06-10.427-18.831-16.825-31.857-16.825-10.297 0-19.97 4.01-27.229 11.282-6.731 6.719-10.667 15.494-11.223 24.917-15.525 4.194-26.879 18.452-26.879 35.071 0 7.766 2.428 15.161 6.917 21.331h-93.319c9.594-9.451 15.555-22.58 15.555-37.079 0-5.295-.81-10.421-2.305-15.26l19.757-41.974c1.764-3.748.155-8.216-3.592-9.979-3.748-1.765-8.216-.157-9.98 3.592l-14.91 31.677c-7.443-9.541-18.127-16.473-30.439-19.033-.165-28.116-21.358-51.328-48.613-54.707zm210.426 153.295c0 12.638 4.952 24.135 13.007 32.675h-46.518c-5.696 0-11.051-2.217-15.071-6.238-4.03-4.037-6.249-9.397-6.249-15.092 0-11.154 8.71-20.496 19.83-21.268 3.931-.273 6.98-3.542 6.98-7.482v-4c0-6.285 2.446-12.188 6.898-16.631 4.434-4.442 10.336-6.889 16.621-6.889 7.969 0 15.168 3.921 19.479 10.306-9.23 8.732-14.977 21.074-14.977 34.619zm-319.561-4.403c0-19.4 15.147-35.642 34.484-36.976 3.932-.271 6.983-3.541 6.983-7.482v-6.193c0-22.317 18.156-40.474 40.474-40.474s40.474 18.156 40.474 40.474v6.193c0 3.942 3.052 7.211 6.983 7.482 19.337 1.334 34.484 17.576 34.484 36.976 0 20.445-16.633 37.078-37.078 37.078h-89.726c-20.445 0-37.078-16.633-37.078-37.078zm448.102 37.078h-80.865c-18.018 0-32.676-14.658-32.676-32.676 0-17.097 13.348-31.41 30.389-32.585 3.932-.271 6.983-3.541 6.983-7.482v-5.582c0-19.705 16.031-35.736 35.736-35.736s35.736 16.031 35.736 35.736v5.582c0 3.942 3.052 7.211 6.983 7.482 17.041 1.175 30.389 15.489 30.389 32.585 0 18.018-14.658 32.676-32.675 32.676z"/><path d="m342.009 131.449h22.613c-.122 1.149-.184 2.31-.184 3.48 0 8.672 3.379 16.819 9.501 22.927 6.121 6.134 14.268 9.513 22.939 9.513h73.83c17.887 0 32.439-14.552 32.439-32.44 0-8.665-3.376-16.812-9.506-22.943-6.124-6.124-14.269-9.497-22.934-9.497h-22.613c.121-1.148.183-2.309.183-3.48 0-8.672-3.378-16.818-9.5-22.927-6.121-6.134-14.268-9.513-22.939-9.513h-34.891c-4.143 0-7.5 3.358-7.5 7.5s3.357 7.5 7.5 7.5h34.891c4.659 0 9.034 1.814 12.332 5.119 3.294 3.286 5.107 7.662 5.107 12.321 0 2.689-.598 5.274-1.776 7.683-1.138 2.325-.997 5.072.373 7.268 1.37 2.195 3.775 3.53 6.363 3.53h32.471c4.658 0 9.036 1.812 12.326 5.103 3.298 3.297 5.113 7.679 5.113 12.337 0 9.616-7.823 17.44-17.439 17.44h-73.83c-4.659 0-9.034-1.814-12.333-5.12-3.294-3.286-5.107-7.661-5.107-12.32 0-2.683.599-5.27 1.78-7.69 1.135-2.325.991-5.07-.38-7.263-1.37-2.194-3.773-3.526-6.36-3.526h-32.47c-4.658 0-9.036-1.812-12.327-5.104-3.298-3.297-5.113-7.678-5.113-12.336 0-9.616 7.824-17.44 17.44-17.44h8.939c4.143 0 7.5-3.358 7.5-7.5s-3.357-7.5-7.5-7.5h-8.939c-17.888 0-32.44 14.552-32.44 32.44 0 8.666 3.377 16.813 9.507 22.943 6.124 6.122 14.269 9.495 22.934 9.495z"/><path d="m50.03 106.576h73.824c17.888 0 32.44-14.553 32.44-32.44 0-1.169-.061-2.328-.183-3.474h7.61c17.888 0 32.44-14.553 32.44-32.44s-14.553-32.44-32.44-32.44h-58.823c-17.888 0-32.44 14.553-32.44 32.44 0 1.169.061 2.328.183 3.474h-22.611c-17.888 0-32.44 14.553-32.44 32.441 0 17.887 14.553 32.439 32.44 32.439zm0-49.881h32.471c2.59 0 4.996-1.336 6.365-3.534 1.37-2.198 1.509-4.947.367-7.271-1.178-2.397-1.774-4.978-1.774-7.668 0-9.617 7.824-17.44 17.44-17.44h58.823c9.616 0 17.44 7.824 17.44 17.44s-7.824 17.44-17.44 17.44h-17.47c-2.59 0-4.996 1.336-6.365 3.534-1.37 2.198-1.509 4.947-.367 7.271 1.178 2.398 1.774 4.979 1.774 7.669 0 9.617-7.824 17.44-17.44 17.44h-73.824c-9.616 0-17.44-7.824-17.44-17.44s7.824-17.441 17.44-17.441z"/></g></svg>