<?xml version="1.0" encoding="utf-8"?>
<!-- Generator: Adobe Illustrator 24.3.0, SVG Export Plug-In . SVG Version: 6.00 Build 0)  -->
<svg version="1.1" id="Capa_1" xmlns="http://www.w3.org/2000/svg" xmlns:xlink="http://www.w3.org/1999/xlink" x="0px" y="0px"
	 viewBox="0 0 512 512" style="enable-background:new 0 0 512 512;" xml:space="preserve">
<style type="text/css">
	.st0{fill:#20C997;}
</style>
<g>
	<g>
		<path class="st0" d="M436,0H76C59.5,0,46,13.5,46,30v452c0,16.5,13.5,30,30,30h360c16.5,0,30-13.5,30-30V30
			C466,13.5,452.5,0,436,0z M446,482c0,5.5-4.5,10-10,10H76c-5.5,0-10-4.5-10-10V30c0-5.5,4.5-10,10-10h360c5.5,0,10,4.5,10,10V482z
			"/>
	</g>
</g>
<g>
	<g>
		<path class="st0" d="M421,35H91c-5.5,0-10,4.5-10,10v422c0,5.5,4.5,10,10,10h330c5.5,0,10-4.5,10-10V45C431,39.5,426.5,35,421,35z
			 M119.2,457c2.2-11.7,7.3-29.9,14-49.6c10.3-30.2,18.7-48,21.3-51c8.2-8.2,32.3-23.5,55.6-26.8c4.8,20.9,23.6,36.5,45.9,36.5
			c22.3,0,41.1-15.6,45.9-36.5c23.3,3.3,47.3,18.6,55.5,26.8c2.7,3,11.1,20.8,21.4,51c1.7,5,3.3,9.9,4.7,14.6h-17.6
			c-5.5,0-10,4.5-10,10s4.5,10,10,10h23.4c1.5,5.7,2.7,10.8,3.5,15H119.2z M279.9,195.8c14.5,14.6,30.3,24.2,46,27.7
			c-4.7,41-20.8,79.7-64.4,82.7c-0.1,0-0.1,0-0.2,0c-0.7,0-1.5,0.1-2.2,0.1c-0.2,0-0.3,0-0.5,0c-0.9,0-1.7,0-2.6,0s-1.7,0-2.6,0
			c-0.2,0-0.3,0-0.5,0c-0.8,0-1.5-0.1-2.2-0.1c-0.1,0-0.1,0-0.2,0c-39.6-2.7-56.5-34.9-62.8-71.6C210,230.8,252,220.5,279.9,195.8z
			 M185.3,214.8c-0.6-7.3-0.8-14.6-0.8-21.6c0-39.4,32.1-71.5,71.5-71.5c39.4,0,71.5,32.1,71.5,71.5c0,3.3-0.1,6.7-0.2,10.1
			c-13.1-3.9-27.1-13.7-39.5-28.3c-1.9-2.2-4.6-3.5-7.5-3.5c-2.8,0-5.6,1.2-7.6,3.3C253.4,196.4,216.6,209.3,185.3,214.8z
			 M282.9,322.6c-1.8,13.3-13.2,23.5-26.9,23.5c-13.7,0-25.1-10.3-26.9-23.5c6.1,1.9,12.7,3.1,19.6,3.5c0.2,0,0.4,0,0.6,0
			c0.9,0.1,1.8,0.1,2.7,0.1c0.3,0,0.5,0,0.8,0c1.1,0,2.2,0.1,3.3,0.1c1.1,0,2.2,0,3.3-0.1c0.3,0,0.5,0,0.8,0c0.9,0,1.8-0.1,2.7-0.1
			c0.2,0,0.4,0,0.6,0C270.2,325.6,276.8,324.4,282.9,322.6z M411,446.5c-1.3-5.6-2.8-11.5-4.4-17.2c0-0.1,0-0.2-0.1-0.3
			c-3.5-12.2-7.2-23.4-9-28.7c-5-14.6-17.5-49.5-25.9-58c-9-9-35.8-27.3-64.7-32.1c26.5-20.6,40.6-60.5,40.6-117.1
			c0-50.4-41-91.5-91.5-91.5s-91.5,41-91.5,91.5c0,56.6,14.1,96.5,40.6,117.1c-28.9,4.8-55.7,23.1-64.7,32.1
			c-8.4,8.4-20.9,43.4-25.9,58c-2.7,7.8-9.5,28.6-13.5,46.2V55h310V446.5z"/>
	</g>
</g>
<g>
	<g>
		<path class="st0" d="M157,70h-31c-5.5,0-10,4.5-10,10s4.5,10,10,10h31c5.5,0,10-4.5,10-10S162.6,70,157,70z"/>
	</g>
</g>
<g>
	<g>
		<path class="st0" d="M186,70h-0.3c-5.5,0-10,4.5-10,10s4.5,10,10,10h0.3c5.5,0,10-4.5,10-10S191.6,70,186,70z"/>
	</g>
</g>
<g>
	<g>
		<path class="st0" d="M337.2,422h-0.3c-5.5,0-10,4.5-10,10s4.5,10,10,10h0.3c5.5,0,10-4.5,10-10S342.7,422,337.2,422z"/>
	</g>
</g>
</svg>
