<?xml version="1.0" encoding="utf-8"?>
<!-- Generator: Adobe Illustrator 24.3.0, SVG Export Plug-In . SVG Version: 6.00 Build 0)  -->
<svg version="1.1" id="Layer_1" xmlns="http://www.w3.org/2000/svg" xmlns:xlink="http://www.w3.org/1999/xlink" x="0px" y="0px"
	 viewBox="0 0 512 512" style="enable-background:new 0 0 512 512;" xml:space="preserve">
<style type="text/css">
	.st0{fill:#20C997;}
</style>
<g>
	<path class="st0" d="M476,40H36C20.5,40,8,52.5,8,68v312c0,15.5,12.5,28,28,28h160.2l-9.6,24H152c-4.4,0-8,3.6-8,8v24
		c0,4.4,3.6,8,8,8h208c4.4,0,8-3.6,8-8v-24c0-4.4-3.6-8-8-8h-34.6l-9.6-24H476c15.5,0,28-12.5,28-28V68C504,52.5,491.5,40,476,40z
		 M352,448v8H160v-8H352z M203.8,432l9.6-24h85.2l9.6,24H203.8z M488,380c0,6.6-5.4,12-12,12H36c-6.6,0-12-5.4-12-12v-12h464V380z
		 M488,352H24v-48h464V352z M488,288H24V68c0-6.6,5.4-12,12-12h440c6.6,0,12,5.4,12,12V288z"/>
	<path class="st0" d="M368,320H200c0-4.4-3.6-8-8-8s-8,3.6-8,8h-40c-4.4,0-8,3.6-8,8s3.6,8,8,8h40c0,4.4,3.6,8,8,8s8-3.6,8-8h168
		c4.4,0,8-3.6,8-8S372.4,320,368,320z"/>
	<path class="st0" d="M60,272h152c15.5,0,28-12.5,28-28V92c0-15.5-12.5-28-28-28H60c-15.5,0-28,12.5-28,28v152
		C32,259.5,44.5,272,60,272z M176,96V80h16v16H176z M160,96h-16V80h16V96z M128,96h-16V80h16V96z M96,96H80V80h16V96z M224,112v112
		H48V112H224z M96,240v16H80v-16H96z M112,240h16v16h-16V240z M144,240h16v16h-16V240z M176,240h16v16h-16V240z M48,244v-4h16v16h-4
		C53.4,256,48,250.6,48,244z M212,256h-4v-16h16v4C224,250.6,218.6,256,212,256z M224,92v4h-16V80h4C218.6,80,224,85.4,224,92z
		 M60,80h4v16H48v-4C48,85.4,53.4,80,60,80z"/>
	<path class="st0" d="M99.8,206.8c2.4,1.5,5.3,1.6,7.8,0.4l64-32c4-2,5.6-6.8,3.6-10.7c-0.8-1.5-2-2.8-3.6-3.6l-64-32
		c-4-2-8.8-0.4-10.7,3.6c-0.6,1.1-0.8,2.3-0.8,3.6v64C96,202.8,97.4,205.3,99.8,206.8z M112,148.9l38.1,19.1L112,187.1V148.9z"/>
	<path class="st0" d="M256,272h216c4.4,0,8-3.6,8-8V72c0-4.4-3.6-8-8-8H256c-4.4,0-8,3.6-8,8v192C248,268.4,251.6,272,256,272z
		 M264,80h200v176H264V80z"/>
	<path class="st0" d="M440,112h-16c0-4.4-3.6-8-8-8s-8,3.6-8,8H288c-4.4,0-8,3.6-8,8s3.6,8,8,8h120c0,4.4,3.6,8,8,8s8-3.6,8-8h16
		c4.4,0,8-3.6,8-8S444.4,112,440,112z"/>
	<path class="st0" d="M440,160h-64c0-4.4-3.6-8-8-8s-8,3.6-8,8h-72c-4.4,0-8,3.6-8,8s3.6,8,8,8h72c0,4.4,3.6,8,8,8s8-3.6,8-8h64
		c4.4,0,8-3.6,8-8S444.4,160,440,160z"/>
	<path class="st0" d="M440,208H312c0-4.4-3.6-8-8-8s-8,3.6-8,8h-8c-4.4,0-8,3.6-8,8s3.6,8,8,8h8c0,4.4,3.6,8,8,8s8-3.6,8-8h128
		c4.4,0,8-3.6,8-8S444.4,208,440,208z"/>
</g>
</svg>
