<?xml version="1.0" encoding="utf-8"?>
<!-- Generator: Adobe Illustrator 24.3.0, SVG Export Plug-In . SVG Version: 6.00 Build 0)  -->
<svg version="1.1" id="Layer_1" xmlns="http://www.w3.org/2000/svg" xmlns:xlink="http://www.w3.org/1999/xlink" x="0px" y="0px"
	 viewBox="0 0 512 512" style="enable-background:new 0 0 512 512;" xml:space="preserve">
<style type="text/css">
	.st0{fill:#20C997;}
</style>
<g>
	<g>
		<path class="st0" d="M394.4,115.5L291.5,67.1c0-0.5,0-0.9,0-1.4c0-17.7-14.3-32-32-32c-17,0-30.9,13.3-31.9,30l-109.9,51.8H0
			v362.8h512V115.5H394.4z M259.5,55.1c5.9,0,10.7,4.8,10.7,10.7s-4.8,10.7-10.7,10.7s-10.7-4.8-10.7-10.7S253.7,55.1,259.5,55.1z
			 M233.6,84.5c5.8,8,15.2,13.2,25.9,13.2c9.5,0,18.1-4.2,24-10.8l60.8,28.6H167.8L233.6,84.5z M132.9,456.8H42.7v-21
			c0-6,3.7-11.2,9.2-13.2l0.4-0.1c16.6-4.5,29-8.9,36.5-11.8c21.8-8.4,35-16.5,41.8-25.7l10.5,28L132.9,456.8z M106.9,273.3
			c4.5,0.5,9.4,0.9,14.7,0.9c16.5,0,36-3.3,57.4-13.3c13.9-6.5,22.4-9.3,28.1-9.3c9.2,0,11.4,7.1,17.8,16.7c1.1,1.6,2.5,3.1,4.3,4.5
			c0.5,3.7,0.7,7.5,0.7,11.4c0,19.4-9,41-24.6,59.4c-10.9,12.8-22.8,21-31.1,23.9h-12.2c-8.3-3-20.2-11.2-31.1-23.9
			c-15.6-18.3-24.6-40-24.6-59.4C106.2,280.5,106.4,276.8,106.9,273.3z M98,250.1c1.4-3.9,3-8.2,4.8-12.6c11.7-28.2,20-33.9,21-34.4
			c14.2-8.6,29.5-13,45.3-13c20,0,34.4,7.1,38.1,10.5c11.6,10.5,19.2,23.4,22.8,38.6c0,0,0,0,0,0c-6.3-5.9-14.1-8.9-23-8.9
			c-9.4,0-20.1,3.3-37.2,11.3c-15.9,7.5-32.1,11.2-48.3,11.2C112.3,252.9,104.3,251.6,98,250.1z M181.2,388.9l-3.5,9.3h-19.4
			l-3.5-9.3H181.2z M154.6,456.8l6.7-35.5h13.5l6.7,35.5H154.6z M293.3,456.8h-90.2l-8.2-43.8l10.5-28c6.8,9.2,20,17.3,41.8,25.7
			c7.4,2.9,19.8,7.2,36.6,11.8l0.3,0.1c5.5,2,9.3,7.3,9.3,13.2V456.8z M314.7,456.8v-21c0-4.4-0.8-8.6-2.3-12.5
			c17.5-7.4,27.5-14.9,32-23.9l0,0l0,0c0.2-0.5,0.5-1,0.6-1.3l0.6-1.3c8.4,5.6,16.9,8.9,24,8.9c7.2,0,15.6-3.2,24.1-8.9l0.6,1.3
			c0.1,0.3,0.3,0.8,0.6,1.3l0,0.1l0,0.1c5.1,10.1,17,18.3,38.7,26.6c6.2,2.4,16.5,6,30.5,9.8l0.1,0c3,1.1,5.1,4,5.1,7.4v13.6H314.7z
			 M364,298.6c9.2,4.5,27.8,11.9,52.7,14c0.1,1.8,0.2,3.7,0.2,5.6c0,15.1-7.1,32.1-19.4,46.5c-11.3,13.3-23.3,19.5-27.8,19.5
			c-4.5,0-16.5-6.2-27.8-19.5c-12.3-14.5-19.4-31.4-19.4-46.5c0-1.1,0-2.1,0.1-3.2C339.5,312.3,353.2,305.9,364,298.6z M327.9,292
			c2.2-4.8,5.2-9,8.7-12.7c8.4-8.7,20-13.6,32.6-13.7c-2,2.3-4.3,4.7-7,7.2C352.2,282.1,340.7,288.6,327.9,292z M382.2,283.2
			c4.3-4.6,7.6-8.8,9.8-12.1c4,2.1,7.6,4.9,10.8,8.2c3.2,3.3,5.8,7,7.9,11.1C399,288.8,389.3,285.9,382.2,283.2z M438.3,318.2
			c0-44.5-30.7-73.9-68.6-73.9c-37.8,0-68.5,29.4-68.5,73.9c0,22.2,10.6,44,24.4,60.3l-0.1,8.2c-25.7-3.3-37.8-8.9-42.4-11.8
			c-1.1-18.5-3.1-89.8,30.6-127.1c14-15.5,32.2-23.1,55.6-23.1c23.4,0,41.7,7.6,55.8,23.1c33.9,37.3,32.3,108.5,31.3,127
			c-4.7,2.9-16.8,8.6-42.5,11.9l-0.1-8.2C427.7,362.3,438.3,340.5,438.3,318.2z M490.7,443.2c0-12.6-8-23.7-19.9-27.7l-0.8-0.2
			c-13.2-3.6-22.8-7-28.6-9.2c-1.5-0.6-2.9-1.1-4.2-1.7c26.8-6.1,35.7-14.7,37.7-17.2l2.1-2.5l0.3-3.3c0.1-1,2.3-24.6-0.8-54.3
			c-4.3-40.8-16.3-72.2-35.5-93.4c-18.2-20-42.3-30.2-71.6-30.2c-29.3,0-53.4,10.1-71.4,30.1c-45.1,49.9-36.1,144-35.7,148l0.3,3.2
			l2.1,2.5c2,2.5,10.9,11,37.6,17.1c-1.2,0.5-2.5,1-3.8,1.5c-2.4-1.5-5-2.8-7.8-3.7l-0.9-0.3c-16-4.3-27.7-8.5-34.7-11.2
			c-25-9.6-31.5-16.5-33.1-19.8c-0.1-0.1-0.1-0.2-0.2-0.4l-0.1-13.2c16.8-19.7,29.6-46.2,29.6-73.1c0,0,15.7-58.5-29.6-99.4
			c-8.3-7.5-28-16-52.5-16c-17.2,0-36.8,4.2-56.3,16C88.8,199.3,71.4,263,71.4,263s5.3,3,14.5,5.8c-0.7,4.9-1.1,10-1.1,15.3
			c0,27,12.8,53.4,29.6,73.1l-0.1,13.2c-0.1,0.1-0.1,0.2-0.2,0.4c-1.7,3.3-8.2,10.2-33.1,19.8c-7,2.7-18.8,6.8-34.6,11.1l-1.1,0.3
			c-14.4,4.8-24.1,18.3-24.1,33.6v-299h469.3V443.2z"/>
	</g>
</g>
</svg>
